<svg width="512" height="512" xmlns="http://www.w3.org/2000/svg">
 <g>
  <title>Layer 1</title>
  <path id="svg_33" fill="#000000" d="m507.330994,411.329987c-0.002014,-0.002014 -0.003998,-0.003998 -0.006012,-0.005005l-155.321991,-155.324982l155.322021,-155.324997c0.001984,-0.001999 0.003998,-0.002998 0.005981,-0.004997c1.671997,-1.673004 2.881012,-3.627007 3.656006,-5.708c2.122986,-5.688004 0.911987,-12.341003 -3.661987,-16.915001l-73.373016,-73.373009c-4.574005,-4.573 -11.225006,-5.783 -16.914001,-3.66c-2.079987,0.775 -4.035004,1.984 -5.708984,3.655c0,0.002 -0.002014,0.003 -0.004028,0.005l-155.323975,155.326004l-155.324005,-155.324997c-0.001999,-0.002 -0.002998,-0.003 -0.004997,-0.005c-1.673004,-1.671 -3.626999,-2.88 -5.707001,-3.655c-5.690002,-2.124 -12.341003,-0.913 -16.915001,3.66l-73.374,73.374001c-4.574,4.573997 -5.784,11.225998 -3.661,16.914001c0.776,2.079994 1.985,4.035995 3.656,5.708c0.002,0.000999 0.003,0.002998 0.005,0.004997l155.325019,155.323967l-155.325019,155.326019c-0.001,0.002014 -0.003,0.002991 -0.004,0.005005c-1.671,1.673004 -2.88,3.626984 -3.657,5.707001c-2.124,5.687988 -0.913,12.341003 3.661,16.915009l73.374,73.372986c4.574997,4.574005 11.225998,5.783997 16.915001,3.661011c2.079994,-0.776001 4.034996,-1.985016 5.708,-3.656006c0.000999,-0.002014 0.002998,-0.002991 0.004997,-0.005005l155.324013,-155.324982l155.324005,155.324982c0.001984,0.001007 0.003998,0.002991 0.005981,0.003998c1.674011,1.671997 3.627014,2.881012 5.707001,3.657013c5.688995,2.122986 12.34201,0.912994 16.914001,-3.661011l73.373016,-73.373993c4.574005,-4.574005 5.785004,-11.22702 3.661987,-16.915009c-0.776001,-2.079987 -1.985016,-4.033997 -3.657013,-5.707001z"/>
 </g>
</svg>
