<svg width="1000" height="1000" xmlns="http://www.w3.org/2000/svg">
 <title>Layer 1</title>
 <g>
  <title>Layer 1</title>
  <path id="svg_2" fill="#BFCDCD" d="m749.359009,1.095h-498.716003c-137.400009,0 -249.186005,111.409997 -249.186005,248.347993v501.109985c0,136.929016 111.785996,248.351013 249.186005,248.351013h498.716003c137.399963,0 249.182983,-111.422974 249.182983,-248.351013v-501.110977c0,-136.937004 -111.78302,-248.345991 -249.182983,-248.345991l0,-0.00101zm156.89502,749.457002c0,86.213989 -70.380005,156.367981 -156.894043,156.367981h-498.715988c-86.513992,0 -156.894997,-70.153992 -156.894997,-156.367981v-323.64801h197.145988c-14.392975,30.442993 -22.487976,64.404022 -22.487976,100.218018c0,130.083008 106.179993,235.896973 236.695984,235.896973c130.513031,0 236.694977,-105.813965 236.694977,-235.896973c0,-35.813995 -8.093994,-69.776001 -22.48999,-100.218018h186.945007v323.64801l0.001038,0zm-499.409027,-223.427979c0,-53.990021 44.076996,-97.923035 98.259003,-97.923035c54.184021,0 98.257996,43.934021 98.257996,97.923035c0,54.000977 -44.073975,97.925964 -98.257996,97.925964c-54.181,-0.000977 -98.259003,-43.924988 -98.259003,-97.925964zm499.409027,-192.199036h-264.174011c-38.700989,-27.467987 -85.954041,-43.694977 -136.976013,-43.694977c-51.022003,0 -98.281006,16.22699 -136.972992,43.694977h-274.382011v-85.480988c0,-86.223007 70.381004,-156.366997 156.894997,-156.366997h498.715988c86.514038,0 156.894043,70.14399 156.894043,156.366997v85.480988h0.000977l-0.000977,0zm-100.006042,-186.062988h-85.549988c-15.231995,0 -27.687012,12.417999 -27.687012,27.593994v85.265991c0,15.175018 12.454041,27.594025 27.687012,27.594025h85.549988c15.231018,0 27.687012,-12.419006 27.687012,-27.594025v-85.265991c0,-15.175995 -12.455017,-27.593994 -27.687012,-27.593994z"/>
 </g>
</svg>
