<svg width="928.5710000000001" height="1000" xmlns="http://www.w3.org/2000/svg">
 <g>
  <title>Layer 1</title>
  <path id="svg_2" fill="#BFCDCD" d="m642.815979,464.320007q0,-103.230011 -73.376953,-176.606995t-176.607025,-73.377014t-176.606995,73.377014t-73.376999,176.606995t73.376999,176.606995t176.606995,73.377014t176.607025,-73.377014t73.376953,-176.606995zm285.696045,464.255981q0,29.015991 -21.204041,50.220032t-50.219971,21.203979q-30.132019,0 -50.220032,-21.203979l-191.393982,-190.835999q-99.882019,69.191956 -222.641998,69.191956q-79.794006,0 -152.613007,-30.968994t-125.549995,-83.700012t-83.699999,-125.549988t-30.969011,-152.612976t30.969011,-152.613007t83.699999,-125.550003t125.549995,-83.699997t152.613007,-30.969002t152.613007,30.969002t125.549988,83.699997t83.700012,125.550003t30.968994,152.613007q0,122.76001 -69.192017,222.641968l191.394043,191.394043q20.645996,20.645996 20.645996,50.219971l0,0z"/>
 </g>
</svg>
